<mxfile host="app.diagrams.net" modified="2021-04-18T01:06:19.878Z" agent="5.0 (Windows NT 10.0; WOW64) AppleWebKit/537.36 (KHTML, like Gecko) Chrome/76.0.3809.87 Safari/537.36" etag="KqtoBpYDcFv3CmrmgTl5" version="14.6.0" type="github">
  <diagram id="QFJvEYgaLnlNwJEcihQy" name="MVC ArgumentResolver">
    <mxGraphModel dx="1422" dy="762" grid="1" gridSize="10" guides="1" tooltips="1" connect="1" arrows="1" fold="1" page="1" pageScale="1" pageWidth="827" pageHeight="1169" math="0" shadow="0">
      <root>
        <mxCell id="0" />
        <mxCell id="1" parent="0" />
        <mxCell id="7z83QInP_VS3jgP_kkjK-3" value="" style="edgeStyle=orthogonalEdgeStyle;rounded=0;orthogonalLoop=1;jettySize=auto;html=1;" edge="1" parent="1" source="7z83QInP_VS3jgP_kkjK-1" target="7z83QInP_VS3jgP_kkjK-2">
          <mxGeometry relative="1" as="geometry" />
        </mxCell>
        <mxCell id="7z83QInP_VS3jgP_kkjK-1" value="doDispatch()" style="rounded=0;whiteSpace=wrap;html=1;" vertex="1" parent="1">
          <mxGeometry x="30" y="110" width="140" height="60" as="geometry" />
        </mxCell>
        <mxCell id="7z83QInP_VS3jgP_kkjK-10" value="" style="edgeStyle=orthogonalEdgeStyle;rounded=0;orthogonalLoop=1;jettySize=auto;html=1;dashed=1;" edge="1" parent="1" source="7z83QInP_VS3jgP_kkjK-2" target="7z83QInP_VS3jgP_kkjK-9">
          <mxGeometry relative="1" as="geometry" />
        </mxCell>
        <mxCell id="7z83QInP_VS3jgP_kkjK-2" value="invokeHandlerMethod" style="rounded=0;whiteSpace=wrap;html=1;" vertex="1" parent="1">
          <mxGeometry x="30" y="250" width="140" height="60" as="geometry" />
        </mxCell>
        <mxCell id="7z83QInP_VS3jgP_kkjK-5" style="edgeStyle=orthogonalEdgeStyle;rounded=0;orthogonalLoop=1;jettySize=auto;html=1;entryX=1;entryY=0.5;entryDx=0;entryDy=0;exitX=0;exitY=0.5;exitDx=0;exitDy=0;dashed=1;" edge="1" parent="1" source="7z83QInP_VS3jgP_kkjK-4" target="7z83QInP_VS3jgP_kkjK-1">
          <mxGeometry relative="1" as="geometry" />
        </mxCell>
        <mxCell id="7z83QInP_VS3jgP_kkjK-8" style="edgeStyle=orthogonalEdgeStyle;rounded=0;orthogonalLoop=1;jettySize=auto;html=1;entryX=0.473;entryY=0;entryDx=0;entryDy=0;dashed=1;entryPerimeter=0;" edge="1" parent="1" source="7z83QInP_VS3jgP_kkjK-4" target="7z83QInP_VS3jgP_kkjK-6">
          <mxGeometry relative="1" as="geometry">
            <Array as="points">
              <mxPoint x="372" y="190" />
              <mxPoint x="372" y="190" />
            </Array>
          </mxGeometry>
        </mxCell>
        <mxCell id="7z83QInP_VS3jgP_kkjK-4" value="DispatcherServlet" style="rounded=0;whiteSpace=wrap;html=1;" vertex="1" parent="1">
          <mxGeometry x="240" y="110" width="280" height="60" as="geometry" />
        </mxCell>
        <mxCell id="7z83QInP_VS3jgP_kkjK-7" style="edgeStyle=orthogonalEdgeStyle;rounded=0;orthogonalLoop=1;jettySize=auto;html=1;entryX=1;entryY=0.75;entryDx=0;entryDy=0;dashed=1;exitX=0;exitY=0.75;exitDx=0;exitDy=0;" edge="1" parent="1" source="7z83QInP_VS3jgP_kkjK-6" target="7z83QInP_VS3jgP_kkjK-2">
          <mxGeometry relative="1" as="geometry">
            <mxPoint x="250" y="350" as="sourcePoint" />
            <Array as="points" />
          </mxGeometry>
        </mxCell>
        <mxCell id="7z83QInP_VS3jgP_kkjK-12" value="" style="edgeStyle=orthogonalEdgeStyle;rounded=0;orthogonalLoop=1;jettySize=auto;html=1;dashed=1;" edge="1" parent="1" source="7z83QInP_VS3jgP_kkjK-6" target="7z83QInP_VS3jgP_kkjK-11">
          <mxGeometry relative="1" as="geometry" />
        </mxCell>
        <mxCell id="7z83QInP_VS3jgP_kkjK-6" value="RequestMappingHandlerAdapter" style="rounded=0;whiteSpace=wrap;html=1;" vertex="1" parent="1">
          <mxGeometry x="240" y="250" width="280" height="60" as="geometry" />
        </mxCell>
        <mxCell id="7z83QInP_VS3jgP_kkjK-14" value="" style="edgeStyle=orthogonalEdgeStyle;rounded=0;orthogonalLoop=1;jettySize=auto;html=1;dashed=1;" edge="1" parent="1" source="7z83QInP_VS3jgP_kkjK-9" target="7z83QInP_VS3jgP_kkjK-13">
          <mxGeometry relative="1" as="geometry" />
        </mxCell>
        <mxCell id="7z83QInP_VS3jgP_kkjK-9" value="invokeAndHandle" style="rounded=0;whiteSpace=wrap;html=1;" vertex="1" parent="1">
          <mxGeometry x="30" y="390" width="140" height="60" as="geometry" />
        </mxCell>
        <mxCell id="7z83QInP_VS3jgP_kkjK-15" style="edgeStyle=orthogonalEdgeStyle;rounded=0;orthogonalLoop=1;jettySize=auto;html=1;entryX=1;entryY=0.5;entryDx=0;entryDy=0;dashed=1;entryPerimeter=0;" edge="1" parent="1" source="7z83QInP_VS3jgP_kkjK-11" target="7z83QInP_VS3jgP_kkjK-9">
          <mxGeometry relative="1" as="geometry">
            <Array as="points">
              <mxPoint x="220" y="420" />
              <mxPoint x="220" y="420" />
            </Array>
          </mxGeometry>
        </mxCell>
        <mxCell id="7z83QInP_VS3jgP_kkjK-17" value="" style="edgeStyle=orthogonalEdgeStyle;rounded=0;orthogonalLoop=1;jettySize=auto;html=1;dashed=1;" edge="1" parent="1" source="7z83QInP_VS3jgP_kkjK-11" target="7z83QInP_VS3jgP_kkjK-16">
          <mxGeometry relative="1" as="geometry" />
        </mxCell>
        <mxCell id="7z83QInP_VS3jgP_kkjK-11" value="ServletInvocableHandlerMethod" style="rounded=0;whiteSpace=wrap;html=1;" vertex="1" parent="1">
          <mxGeometry x="240" y="400" width="280" height="60" as="geometry" />
        </mxCell>
        <mxCell id="7z83QInP_VS3jgP_kkjK-21" value="" style="edgeStyle=orthogonalEdgeStyle;rounded=0;orthogonalLoop=1;jettySize=auto;html=1;dashed=1;" edge="1" parent="1" source="7z83QInP_VS3jgP_kkjK-13" target="7z83QInP_VS3jgP_kkjK-20">
          <mxGeometry relative="1" as="geometry" />
        </mxCell>
        <mxCell id="7z83QInP_VS3jgP_kkjK-13" value="getMethodArgumentValues:" style="rounded=0;whiteSpace=wrap;html=1;" vertex="1" parent="1">
          <mxGeometry x="10" y="530" width="160" height="60" as="geometry" />
        </mxCell>
        <mxCell id="7z83QInP_VS3jgP_kkjK-19" style="edgeStyle=orthogonalEdgeStyle;rounded=0;orthogonalLoop=1;jettySize=auto;html=1;entryX=1;entryY=0.5;entryDx=0;entryDy=0;dashed=1;" edge="1" parent="1" source="7z83QInP_VS3jgP_kkjK-16" target="7z83QInP_VS3jgP_kkjK-13">
          <mxGeometry relative="1" as="geometry" />
        </mxCell>
        <mxCell id="7z83QInP_VS3jgP_kkjK-23" value="" style="edgeStyle=orthogonalEdgeStyle;rounded=0;orthogonalLoop=1;jettySize=auto;html=1;dashed=1;" edge="1" parent="1" source="7z83QInP_VS3jgP_kkjK-16" target="7z83QInP_VS3jgP_kkjK-22">
          <mxGeometry relative="1" as="geometry" />
        </mxCell>
        <mxCell id="7z83QInP_VS3jgP_kkjK-16" value="InvocableHandlerMethod" style="rounded=0;whiteSpace=wrap;html=1;" vertex="1" parent="1">
          <mxGeometry x="240" y="530" width="280" height="60" as="geometry" />
        </mxCell>
        <mxCell id="7z83QInP_VS3jgP_kkjK-25" value="" style="edgeStyle=orthogonalEdgeStyle;rounded=0;orthogonalLoop=1;jettySize=auto;html=1;dashed=1;" edge="1" parent="1" source="7z83QInP_VS3jgP_kkjK-20" target="7z83QInP_VS3jgP_kkjK-24">
          <mxGeometry relative="1" as="geometry" />
        </mxCell>
        <mxCell id="7z83QInP_VS3jgP_kkjK-20" value="resolveArgument" style="rounded=0;whiteSpace=wrap;html=1;" vertex="1" parent="1">
          <mxGeometry x="10" y="670" width="160" height="60" as="geometry" />
        </mxCell>
        <mxCell id="7z83QInP_VS3jgP_kkjK-27" value="" style="edgeStyle=orthogonalEdgeStyle;rounded=0;orthogonalLoop=1;jettySize=auto;html=1;dashed=1;" edge="1" parent="1" source="7z83QInP_VS3jgP_kkjK-22" target="7z83QInP_VS3jgP_kkjK-26">
          <mxGeometry relative="1" as="geometry" />
        </mxCell>
        <mxCell id="7z83QInP_VS3jgP_kkjK-22" value="HandlerMethodArgumentResolverComposite" style="rounded=0;whiteSpace=wrap;html=1;" vertex="1" parent="1">
          <mxGeometry x="240" y="670" width="280" height="60" as="geometry" />
        </mxCell>
        <mxCell id="7z83QInP_VS3jgP_kkjK-32" value="" style="edgeStyle=orthogonalEdgeStyle;rounded=0;orthogonalLoop=1;jettySize=auto;html=1;dashed=1;" edge="1" parent="1" source="7z83QInP_VS3jgP_kkjK-24" target="7z83QInP_VS3jgP_kkjK-31">
          <mxGeometry relative="1" as="geometry" />
        </mxCell>
        <mxCell id="7z83QInP_VS3jgP_kkjK-24" value="resolveArgument" style="rounded=0;whiteSpace=wrap;html=1;" vertex="1" parent="1">
          <mxGeometry x="10" y="810" width="160" height="60" as="geometry" />
        </mxCell>
        <mxCell id="7z83QInP_VS3jgP_kkjK-30" value="" style="edgeStyle=orthogonalEdgeStyle;rounded=0;orthogonalLoop=1;jettySize=auto;html=1;dashed=1;" edge="1" parent="1" source="7z83QInP_VS3jgP_kkjK-26" target="7z83QInP_VS3jgP_kkjK-24">
          <mxGeometry relative="1" as="geometry" />
        </mxCell>
        <mxCell id="7z83QInP_VS3jgP_kkjK-33" style="edgeStyle=orthogonalEdgeStyle;rounded=0;orthogonalLoop=1;jettySize=auto;html=1;exitX=0.5;exitY=1;exitDx=0;exitDy=0;entryX=1;entryY=0.5;entryDx=0;entryDy=0;dashed=1;" edge="1" parent="1" source="7z83QInP_VS3jgP_kkjK-26" target="7z83QInP_VS3jgP_kkjK-31">
          <mxGeometry relative="1" as="geometry" />
        </mxCell>
        <mxCell id="7z83QInP_VS3jgP_kkjK-38" style="edgeStyle=orthogonalEdgeStyle;rounded=0;orthogonalLoop=1;jettySize=auto;html=1;entryX=0;entryY=0.5;entryDx=0;entryDy=0;" edge="1" parent="1" source="7z83QInP_VS3jgP_kkjK-26" target="7z83QInP_VS3jgP_kkjK-37">
          <mxGeometry relative="1" as="geometry" />
        </mxCell>
        <mxCell id="7z83QInP_VS3jgP_kkjK-26" value="PageableHandlerMethodArgumentResolver" style="rounded=0;whiteSpace=wrap;html=1;fillColor=#ffe6cc;strokeColor=#d79b00;" vertex="1" parent="1">
          <mxGeometry x="240" y="810" width="280" height="60" as="geometry" />
        </mxCell>
        <mxCell id="7z83QInP_VS3jgP_kkjK-28" value="Pageable.class.equals(parameter.getParameterType()" style="text;html=1;align=center;verticalAlign=middle;resizable=0;points=[];autosize=1;strokeColor=none;" vertex="1" parent="1">
          <mxGeometry x="400" y="785" width="300" height="20" as="geometry" />
        </mxCell>
        <mxCell id="7z83QInP_VS3jgP_kkjK-46" style="edgeStyle=orthogonalEdgeStyle;rounded=0;orthogonalLoop=1;jettySize=auto;html=1;entryX=0.25;entryY=0;entryDx=0;entryDy=0;fontSize=16;" edge="1" parent="1" source="7z83QInP_VS3jgP_kkjK-29" target="7z83QInP_VS3jgP_kkjK-26">
          <mxGeometry relative="1" as="geometry" />
        </mxCell>
        <mxCell id="7z83QInP_VS3jgP_kkjK-29" value="如果参数是Pagable类型，那么就能找到" style="text;html=1;align=center;verticalAlign=middle;resizable=0;points=[];autosize=1;strokeColor=none;" vertex="1" parent="1">
          <mxGeometry y="760" width="230" height="20" as="geometry" />
        </mxCell>
        <mxCell id="7z83QInP_VS3jgP_kkjK-35" value="" style="edgeStyle=orthogonalEdgeStyle;rounded=0;orthogonalLoop=1;jettySize=auto;html=1;dashed=1;" edge="1" parent="1" source="7z83QInP_VS3jgP_kkjK-31" target="7z83QInP_VS3jgP_kkjK-34">
          <mxGeometry relative="1" as="geometry" />
        </mxCell>
        <mxCell id="7z83QInP_VS3jgP_kkjK-31" value="getPageable" style="rounded=0;whiteSpace=wrap;html=1;" vertex="1" parent="1">
          <mxGeometry x="10" y="950" width="160" height="60" as="geometry" />
        </mxCell>
        <mxCell id="7z83QInP_VS3jgP_kkjK-34" value="parseAndApplyBoundaries" style="rounded=0;whiteSpace=wrap;html=1;" vertex="1" parent="1">
          <mxGeometry x="10" y="1090" width="160" height="60" as="geometry" />
        </mxCell>
        <mxCell id="7z83QInP_VS3jgP_kkjK-36" value="if(oneIndexedParameters) page--" style="text;html=1;align=center;verticalAlign=middle;resizable=0;points=[];autosize=1;strokeColor=none;" vertex="1" parent="1">
          <mxGeometry x="180" y="1110" width="190" height="20" as="geometry" />
        </mxCell>
        <mxCell id="7z83QInP_VS3jgP_kkjK-42" value="" style="edgeStyle=orthogonalEdgeStyle;rounded=0;orthogonalLoop=1;jettySize=auto;html=1;" edge="1" parent="1" source="7z83QInP_VS3jgP_kkjK-37" target="7z83QInP_VS3jgP_kkjK-41">
          <mxGeometry relative="1" as="geometry" />
        </mxCell>
        <mxCell id="7z83QInP_VS3jgP_kkjK-37" value="PageableArgumentResolver" style="rounded=0;whiteSpace=wrap;html=1;fillColor=#ffe6cc;strokeColor=#d79b00;" vertex="1" parent="1">
          <mxGeometry x="660" y="810" width="280" height="60" as="geometry" />
        </mxCell>
        <mxCell id="7z83QInP_VS3jgP_kkjK-39" value="实现接口" style="text;html=1;align=center;verticalAlign=middle;resizable=0;points=[];autosize=1;strokeColor=none;" vertex="1" parent="1">
          <mxGeometry x="540" y="820" width="60" height="20" as="geometry" />
        </mxCell>
        <mxCell id="7z83QInP_VS3jgP_kkjK-40" value="spring-data-commons" style="text;html=1;align=center;verticalAlign=middle;resizable=0;points=[];autosize=1;strokeColor=none;fontSize=16;fontStyle=1" vertex="1" parent="1">
          <mxGeometry x="715" y="780" width="180" height="20" as="geometry" />
        </mxCell>
        <mxCell id="7z83QInP_VS3jgP_kkjK-41" value="HandlerMethodArgumentResolver" style="rounded=0;whiteSpace=wrap;html=1;fillColor=#ffe6cc;strokeColor=#d79b00;" vertex="1" parent="1">
          <mxGeometry x="1020" y="810" width="280" height="60" as="geometry" />
        </mxCell>
        <mxCell id="7z83QInP_VS3jgP_kkjK-43" value="继承接口" style="text;html=1;align=center;verticalAlign=middle;resizable=0;points=[];autosize=1;strokeColor=none;" vertex="1" parent="1">
          <mxGeometry x="940" y="820" width="60" height="20" as="geometry" />
        </mxCell>
        <mxCell id="7z83QInP_VS3jgP_kkjK-45" value="spring-web" style="text;html=1;align=center;verticalAlign=middle;resizable=0;points=[];autosize=1;strokeColor=none;fontSize=16;fontStyle=1" vertex="1" parent="1">
          <mxGeometry x="1101" y="780" width="100" height="20" as="geometry" />
        </mxCell>
      </root>
    </mxGraphModel>
  </diagram>
</mxfile>
